<svg id="Layer_1" enable-background="new 0 0 511.505 511.505" height="512" viewBox="0 0 511.505 511.505" width="512" xmlns="http://www.w3.org/2000/svg"><g><path d="m236.719 186.481c-.601 2.532.154 5.195 1.994 7.035l25.803 25.803c1.464 1.464 3.384 2.197 5.303 2.197s3.839-.732 5.303-2.197l25.803-25.803c1.84-1.84 2.595-4.503 1.994-7.035s-2.472-4.572-4.943-5.389c-18.157-6.003-38.157-6.003-56.314 0-2.471.817-4.342 2.857-4.943 5.389zm44.118 5.91-11.018 11.018-11.018-11.018c7.294-1.075 14.743-1.075 22.036 0z"/><path d="m219.715 127.307c-15.183 0-27.535 12.352-27.535 27.535 0 4.142 3.358 7.5 7.5 7.5s7.5-3.358 7.5-7.5c0-6.912 5.623-12.535 12.535-12.535s12.535 5.623 12.535 12.535c0 4.142 3.358 7.5 7.5 7.5s7.5-3.358 7.5-7.5c0-15.182-12.352-27.535-27.535-27.535z"/><path d="m332.458 154.842c0 4.142 3.358 7.5 7.5 7.5s7.5-3.358 7.5-7.5c0-15.183-12.352-27.535-27.535-27.535s-27.535 12.352-27.535 27.535c0 4.142 3.358 7.5 7.5 7.5s7.5-3.358 7.5-7.5c0-6.912 5.623-12.535 12.535-12.535s12.535 5.623 12.535 12.535z"/><path d="m269.819 301.891c15.183 0 27.535-12.352 27.535-27.535v-3.866c11.549-3.274 20.035-13.913 20.035-26.497 0-4.142-3.358-7.5-7.5-7.5s-7.5 3.358-7.5 7.5c0 6.912-5.623 12.535-12.535 12.535s-12.535-5.623-12.535-12.535c0-4.142-3.358-7.5-7.5-7.5s-7.5 3.358-7.5 7.5c0 6.912-5.623 12.535-12.535 12.535s-12.535-5.623-12.535-12.535c0-4.142-3.358-7.5-7.5-7.5s-7.5 3.358-7.5 7.5c0 12.584 8.485 23.223 20.035 26.497v3.866c.001 15.183 12.353 27.535 27.535 27.535zm0-39.028c3.369 3.575 7.681 6.252 12.535 7.628v3.866c0 6.912-5.623 12.535-12.535 12.535s-12.535-5.623-12.535-12.535v-3.866c4.854-1.376 9.166-4.053 12.535-7.628z"/><path d="m485.873 222.933c-18.056-12.495-38.008-19.879-56.535-24.179-.054-19.209-3.898-37.588-10.859-54.499v-125.871c0-7.151-4.011-13.503-10.469-16.576-6.458-3.074-13.917-2.182-19.49 2.347l-64.326 52.694c-16.977-5.859-35.29-9.056-54.375-9.056s-37.397 3.198-54.375 9.056l-64.35-52.713c-5.55-4.51-13.01-5.401-19.467-2.328s-10.468 9.425-10.468 16.576v28.945c0 4.142 3.358 7.5 7.5 7.5s7.5-3.358 7.5-7.5v-28.945c0-1.845 1.2-2.692 1.915-3.032.715-.341 2.129-.738 3.538.407l57.989 47.503c-25.854 12.078-47.784 30.606-63.442 53.359v-34.034c0-4.142-3.358-7.5-7.5-7.5s-7.5 3.358-7.5 7.5v61.668c-6.961 16.911-10.805 35.29-10.859 54.499-18.527 4.299-38.479 11.684-56.535 24.178-3.406 2.357-4.256 7.029-1.899 10.435 1.456 2.104 3.795 3.233 6.174 3.233 1.472 0 2.959-.432 4.261-1.333 15.36-10.629 32.523-17.179 48.769-21.17 1.2 11.58 3.781 22.782 7.585 33.454-11.402 6.423-23.084 15.095-32.64 26.688-2.634 3.196-2.179 7.923 1.017 10.558 1.397 1.151 3.087 1.713 4.766 1.712 2.163 0 4.309-.931 5.792-2.729 7.769-9.426 17.355-16.688 26.896-22.224 12.489 26.093 32.558 48.253 57.524 63.932-31.314 11.393-50.388 43.911-44.14 77.449l9.137 49.042h-6.984c-21.562 0-39.103 17.542-39.103 39.103v5.421h-18.547c-24.799 0-44.974-20.175-44.974-44.974v-62.494c0-19.181 15.604-34.785 34.785-34.785s34.786 15.604 34.786 34.785-15.605 34.786-34.786 34.786c-3.767 0-6.832-3.065-6.832-6.832 0-3.768 3.065-6.833 6.832-6.833 4.142 0 7.5-3.358 7.5-7.5s-3.358-7.5-7.5-7.5c-12.038 0-21.832 9.794-21.832 21.833 0 12.038 9.794 21.832 21.832 21.832 27.452 0 49.786-22.334 49.786-49.786s-22.334-49.785-49.786-49.785-49.785 22.333-49.785 49.785v62.494c0 33.07 26.904 59.974 59.974 59.974h348.846c4.142 0 7.5-3.358 7.5-7.5v-12.921c0-21.562-17.542-39.103-39.103-39.103h-6.984l9.137-49.042c6.249-33.539-12.827-66.058-44.069-77.433 4.637-2.902 9.123-6.04 13.436-9.409 3.264-2.55 3.844-7.263 1.294-10.527s-7.262-3.845-10.527-1.294c-25.813 20.161-58.515 31.265-92.082 31.265-58.709 0-109.354-33.206-131.951-80.76 15.858-6.977 28.873-9.32 29.111-9.362 4.078-.702 6.818-4.575 6.122-8.654-.698-4.083-4.575-6.828-8.656-6.13-1.073.184-15.072 2.672-32.254 10.183-3.238-9.506-5.399-19.463-6.346-29.743 27.741-4.59 49.779-2.427 50.262-2.377 4.111.436 7.813-2.54 8.254-6.657.442-4.119-2.538-7.815-6.657-8.257-1.621-.174-23.872-2.41-52.363 2.058 1.556-61.072 45.87-112.327 105.711-128.068v23.218c0 4.142 3.358 7.5 7.5 7.5s7.5-3.358 7.5-7.5v-26.354c5.33-.836 10.758-1.395 16.266-1.662v41.124c0 4.142 3.358 7.5 7.5 7.5s7.5-3.358 7.5-7.5v-41.124c5.097.247 10.124.745 15.069 1.48v26.536c0 4.142 3.358 7.5 7.5 7.5s7.5-3.358 7.5-7.5v-23.525c60.446 15.369 105.341 66.898 106.908 128.376-28.491-4.468-50.742-2.232-52.363-2.058-4.119.442-7.099 4.139-6.657 8.257.442 4.119 4.149 7.1 8.257 6.657.378-.04 22.444-2.259 50.27 2.349-.925 10.202-3.042 20.177-6.305 29.793-17.205-7.529-31.23-10.022-32.305-10.206-4.085-.698-7.948 2.044-8.65 6.122-.702 4.079 2.038 7.956 6.116 8.663.239.041 13.287 2.39 29.172 9.388-4.312 9.078-9.71 17.747-16.152 25.885-2.571 3.248-2.022 7.965 1.225 10.536 3.249 2.572 7.966 2.022 10.536-1.225 7.072-8.934 13.014-18.447 17.779-28.408 9.519 5.531 19.079 12.782 26.83 22.186 1.483 1.799 3.628 2.729 5.792 2.729 1.679 0 3.369-.561 4.766-1.712 3.196-2.635 3.651-7.362 1.017-10.558-9.539-11.573-21.198-20.235-32.581-26.655 3.836-10.799 6.367-22.019 7.54-33.51 16.225 3.994 33.375 10.551 48.755 21.193 1.302.901 2.789 1.333 4.261 1.333 2.378 0 4.718-1.129 6.174-3.233 2.356-3.405 1.505-8.077-1.901-10.434zm-197.366 273.572h-37.375c2.497-4.353 3.926-9.394 3.926-14.762v-76.136c0-8.14 6.622-14.762 14.762-14.762s14.762 6.622 14.762 14.762v76.136c-.001 5.368 1.428 10.409 3.925 14.762zm98.515-96.313-10.79 57.916c-.408 2.192.18 4.452 1.604 6.167s3.539 2.707 5.769 2.707h16.01c13.291 0 24.103 10.813 24.103 24.103v5.421h-83.539c2.497-4.353 3.926-9.394 3.926-14.762v-144.558l2.287.572c28.066 6.654 45.913 34.078 40.63 62.434zm-57.917-60.506v142.057c0 8.14-6.622 14.762-14.762 14.762s-14.762-6.622-14.762-14.762v-76.136c0-16.411-13.351-29.762-29.762-29.762s-29.762 13.351-29.762 29.762v76.136c0 8.14-6.622 14.762-14.762 14.762s-14.762-6.622-14.762-14.762v-83.492c0-4.142-3.358-7.5-7.5-7.5s-7.5 3.358-7.5 7.5v83.492c0 5.368 1.429 10.409 3.926 14.762h-83.539v-5.421c0-13.291 10.813-24.103 24.103-24.103h16.01c2.229 0 4.344-.992 5.769-2.707s2.013-3.975 1.604-6.167l-10.79-57.916c-5.283-28.356 12.564-55.779 40.721-62.455l2.196-.55v26.135c0 4.142 3.358 7.5 7.5 7.5s7.5-3.358 7.5-7.5v-23.62c18.336 6.99 38.346 10.839 59.286 10.839 20.417.001 40.553-3.745 59.286-10.854zm10.932-276.425 57.966-47.484c1.433-1.164 2.846-.766 3.562-.426.715.34 1.915 1.187 1.915 3.032v98.236c-15.659-22.751-37.589-41.28-63.443-53.358z"/></g></svg>