<svg id="dino2" enable-background="new 0 0 300 300" height="512" viewBox="0 0 300 300" width="512" xmlns="http://www.w3.org/2000/svg"><path d="m270.276 242.408c-.713-2.053-2.947-3.152-5.01-2.496-1.26.398-31.096 9.291-57.076-37.479-11.555-20.795-28.037-35.021-48.992-42.281-14.424-4.996-30.359-5.561-46.1-1.625l-16.057 4.014c-9.096 2.279-18.871-.432-25.508-7.064-2.697-2.697-4.576-5.99-5.432-9.523-9.219-38.059 14.17-64.617 21.266-71.617 4.984 2.109 15.746 4.711 27.598-4.633 3.17-2.498 4.908-6.395 4.652-10.422-.256-4.002-2.459-7.623-5.895-9.684l-4.783-2.869c-11.451-6.871-25.74-6.189-36.402 1.727-20.3 15.077-52.536 50.368-40.368 117.3 3.729 20.514 15.79 38.09 35.159 51.65.004.082-.03.155-.021.237l4.16 36.797c.229 2.023 1.939 3.551 3.975 3.551h16.858 16.859c1.986 0 3.672-1.459 3.959-3.424l2.429-16.71c5.305.883 10.648 1.343 16.01 1.343 5.065 0 10.144-.463 15.212-1.253l3.427 16.841c.379 1.863 2.018 3.203 3.92 3.203h16.859c1.986 0 3.672-1.459 3.959-3.424l3.157-21.721c22.055 15.214 43.702 19.173 60.226 19.173 17.053 0 28.648-4.203 29.596-4.557 2.033-.765 3.074-3.003 2.363-5.054zm-194.323-19.508c2.877 1.665 5.855 3.272 8.99 4.784.119.057.247.049.369.094l2.511 22.213h-8.806zm103.433 1.036 1.167-8.032c.316-2.188-1.197-4.217-3.383-4.535-2.188-.32-4.219 1.197-4.535 3.383l-5.121 35.238h-10.131l-10.586-52.029c-.441-2.166-2.559-3.57-4.717-3.123-2.166.441-3.562 2.553-3.123 4.717l6.212 30.532c-9.514 1.445-19.052 1.351-28.459-.232l2.028-13.95c.316-2.188-1.197-4.217-3.383-4.535-2.176-.309-4.217 1.195-4.535 3.383l-5.123 35.238h-9.824l-5.219-46.158c-.248-2.195-2.242-3.768-4.424-3.525-2.195.248-3.773 2.229-3.525 4.424l1.541 13.63c-25.211-13.231-40.088-31.386-44.207-54.034-11.393-62.682 18.46-95.478 37.269-109.451 8.057-5.984 18.854-6.486 27.518-1.289l4.783 2.869c1.199.719 1.938 1.934 2.025 3.334.092 1.422-.5 2.746-1.621 3.631-11.271 8.881-20.746 2.992-21.113 2.756-1.488-.99-3.459-.875-4.822.291-1.537 1.318-37.51 32.826-25.748 81.367 1.199 4.961 3.811 9.559 7.549 13.297 8.613 8.609 21.291 12.127 33.105 9.17l16.057-4.014c14.229-3.557 28.584-3.064 41.539 1.422 19.037 6.596 34.049 19.586 44.619 38.609 11.77 21.186 24.553 32.086 35.746 37.512-15.945-.254-36.805-4.473-57.559-19.896z"/><circle cx="95.491" cy="55.99" r="2.855"/></svg>