<svg id="Layer_1" height="512" viewBox="0 0 512 512" width="512" xmlns="http://www.w3.org/2000/svg" data-name="Layer 1"><path d="m500.9 340.311c-21.223.354-44.541-11.469-60.091-21.2a70.743 70.743 0 0 0 32.493-11.429 6 6 0 0 0 -6.06-10.3c-1.551.729-6.423 1.89-18.128-3.037a78.21 78.21 0 0 1 -33.655-27.8c-25.4-36.573-54.617-36.24-66.123-34.365a58.7 58.7 0 0 0 -7.327-9.658c-8.982-9.6-25.952-21.192-55.8-21.886a210.428 210.428 0 0 1 -29.13-2.4 23.4 23.4 0 0 1 -19.342-21.17c-1.663-19.28-7.95-33.119-14.49-42.583a6 6 0 0 0 6.592-7.988c-7.034-19.192-23.574-33.54-36.766-42.451a6 6 0 0 0 2.776-9.786c-25.6-28.314-64.685-27.106-79.214-25.507-4.635-11.459-18.323-19.813-20.118-20.871a6 6 0 0 0 -8.905 6.462l1.2 5.431-3.576-2.13a6 6 0 0 0 -8.043 8.513c1.882 2.787 2.449 13.371 1.887 22.483-10.835 10.824-21.474 42.061-24.559 51.642-7.161 7.157-13.125 20.955-2.573 33.264a24.5 24.5 0 0 0 21.795 8.692 18.012 18.012 0 0 0 12.629-7.2 18.478 18.478 0 0 0 2.165-4c7.1-1.617 21.647-6.631 29.5-21.4a20.413 20.413 0 0 1 4.49 6.874c3.871 9.63 1.659 23.558-6.4 40.279-15.163 31.477-18.387 51.723-18.421 63.164a3.625 3.625 0 0 1 -3.171 3.518c-7.826 1.07-21.406-2.074-38.6-6.056l-.163-.037c-8.715-2.019-16.34-.922-22.664 3.261-10.7 7.077-13.177 20.477-13.278 21.044a6.131 6.131 0 0 0 -.082 1.373c.01.18.843 18.091-8.486 26.937-8.13 7.709-8.346 21.186-.608 37.948a38.254 38.254 0 0 1 3.112 10.178l2.934 18.93a9.4 9.4 0 0 0 9.266 7.972q.456 0 .918-.045c7.067-.692 12.82-3.935 16.2-9.131 4.517-6.941 4.67-16.923.455-29.667a15.813 15.813 0 0 0 -6.2-8.168 3.622 3.622 0 0 1 -1.56-3.745c1.362-6.705 5.606-24.9 13.232-35.175a25.671 25.671 0 0 0 .232 10.979c.3 1.361-1.218 5.977-2.223 9.031-3.091 9.4-7.762 23.6 1.7 35.234 4.649 5.719 6.33 11 7.956 16.114 2.106 6.619 4.283 13.463 12.335 18.446a6 6 0 0 0 6.507-.124c9.54-6.419 14.618-14.013 15.093-22.572.714-12.843-9.31-23.351-15.349-28.473a4.475 4.475 0 0 1 -1.451-2.436c-2.481-10.757-1.714-18.862 2.282-24.091 4.143-5.421 10.951-6.469 12.824-6.659a95.537 95.537 0 0 0 60.986-4.4c7.223 12.228 29.614 40.061 84.623 42.6 2.437 12.324 8.813 26.428 22.871 40.263a106.908 106.908 0 0 1 9.116 14.7c5.372 10.549 7.294 19.283 5.561 25.257-1.223 4.21-4.446 7.205-9.856 9.154-12.255 4.416-17.934 10.654-22.711 16.313a62.551 62.551 0 0 0 -14.727 1.473c-13.246 3.04-22.154 10.424-25.761 21.355a6 6 0 0 0 3.8 7.572l-4.468 5.816a6 6 0 0 0 -.49 6.564c3.141 5.666 11.129 13.77 22.776 13.77a30.113 30.113 0 0 0 13.116-3.232 6 6 0 0 0 2.865-2.933l6.351-14.042 14.545-3.252a6 6 0 0 0 3.789-2.692c4.727-7.617 20.076-27.958 34.155-30.577 13.035-2.423 22.018-8.192 25.98-16.682 2.476-5.308 4-14.156-2.774-26.167-8.758-15.518-2.614-33.843 2.228-37.1.6-.4 1.521-.956 2.586-1.595 11.447-6.867 41.214-24.727 43-73.768.022.011.043.022.065.035 1.815.993 7.888 6.286 9.871 32.664 1.637 21.784 9.534 37.653 23.471 47.163 20.982 14.319 54.634 14.071 102.879-.755a6 6 0 0 0 -1.859-11.734zm-422.273 5.222c-.2 3.652-2.321 7.218-6.307 10.636-1.855-2.174-2.826-5-4.212-9.358-1.78-5.6-4-12.562-10.08-20.045-4.939-6.076-2.953-13.745.392-23.915 2-6.073 3.723-11.318 2.366-16.062-.827-2.895.3-8.092 1.871-12.67a100.371 100.371 0 0 0 9.171 4.576 27.032 27.032 0 0 0 -5.152 5.061c-6.372 8.213-7.906 19.73-4.561 34.231a16.381 16.381 0 0 0 5.383 8.891c2.725 2.312 11.583 10.488 11.129 18.655zm328.02-2.645c-10.924-7.454-16.9-19.933-18.269-38.151-1.8-23.93-7.219-37.849-16.572-42.552a15.062 15.062 0 0 0 -14.455.484 6 6 0 0 0 -2.792 5.1c.194 46.184-26.049 61.927-37.255 68.65-1.21.726-2.255 1.353-3.114 1.931-5.479 3.689-9.834 12.052-11.365 21.825a48.325 48.325 0 0 0 5.388 31.13c3.429 6.075 4.219 11.187 2.349 15.195-2.221 4.76-8.365 8.3-17.3 9.959-9.528 1.772-19.573 8.475-29.857 19.923a131.6 131.6 0 0 0 -10.888 13.964l-15.092 3.373a6 6 0 0 0 -4.158 3.383l-6.629 14.657c-8 3.017-13.24-.411-16.03-3.369l7.14-9.3a6 6 0 0 0 -3.152-9.436l-1.1-.3c2.99-3.663 7.57-6.239 13.689-7.688a50.164 50.164 0 0 1 14.4-1.133 5.993 5.993 0 0 0 5.167-2.087l1.167-1.384c4.551-5.418 8.482-10.1 18.359-13.656 11.4-4.107 15.706-11.565 17.312-17.1 5.979-20.6-14.584-47.915-16.948-50.962a5.955 5.955 0 0 0 -.551-.616c-31.776-31-17.914-62.934-17.319-64.255a6 6 0 1 0 -10.9-5.025 62.359 62.359 0 0 0 -4.625 25.194c-24.078-1.433-44.369-8.477-58.961-20.569a64.249 64.249 0 0 1 -13.541-15.24 122.229 122.229 0 0 0 19.071-13.333 6 6 0 1 0 -7.748-9.163c-20.85 17.63-43.594 25.327-67.593 22.872a92.032 92.032 0 0 1 -38.3-12.96 14.392 14.392 0 0 0 -11.344-1.723c-9.836 2.65-23.165 13.708-30.809 51.347a15.576 15.576 0 0 0 6.664 16.127 3.768 3.768 0 0 1 1.464 1.95c2.928 8.853 3.241 15.726.88 19.354a8.227 8.227 0 0 1 -4.874 3.29l-2.523-16.306a50.313 50.313 0 0 0 -4.075-13.371c-1.969-4.265-7.934-18.614-2.031-24.212 12.081-11.456 12.347-31 12.243-35.435.483-1.994 2.538-9.068 8.021-12.654 3.509-2.295 7.853-2.8 13.281-1.543l.164.038c19.114 4.427 32.925 7.623 42.934 6.254a15.678 15.678 0 0 0 13.544-15.371c.025-8.35 2.3-26.988 17.233-57.992 9.695-20.126 11.955-36.935 6.719-49.962a30.788 30.788 0 0 0 -16.234-17.069 6 6 0 0 0 -7.832 3.829c-3.668 11.763-12.935 17.015-19.45 19.311a54.864 54.864 0 0 0 -.859-6.532 6 6 0 0 0 -11.788 2.246c1.262 6.626.954 11.668-.869 14.2-.339.47-1.372 1.9-4.488 2.32a12.566 12.566 0 0 1 -11.092-4.608c-7.047-8.221 1-16.147 2.654-17.63a5.993 5.993 0 0 0 1.776-2.716c5.516-17.505 16.253-44.267 22.869-48.965a6 6 0 0 0 2.5-4.371 116.571 116.571 0 0 0 .259-16.944l3.469 2.065a6 6 0 0 0 8.929-6.447l-.323-1.465a12.994 12.994 0 0 1 2.976 6.582 6.007 6.007 0 0 0 7.117 5.493c.408-.079 35.877-6.527 62.641 11.439l-4.082.132a6 6 0 0 0 -2.255 11.474c.329.148 28.381 12.919 43.006 34.676l-7.862-2.209a6 6 0 0 0 -4.62 10.973c.224.13 22.5 13.375 25.678 50.274a35.4 35.4 0 0 0 29.314 31.973 222.335 222.335 0 0 0 30.836 2.559c35.829.832 49.77 18.768 54.7 28.432a6.053 6.053 0 0 0 .562 1.148 29.161 29.161 0 0 1 1.847 4.856 6 6 0 1 0 11.668-2.8c-.013-.056-.065-.269-.165-.617 10.373-.723 31.7 1.862 51.059 29.737a90.183 90.183 0 0 0 38.856 32.018q.923.389 1.823.745a53.489 53.489 0 0 1 -25.5-.686 6 6 0 0 0 -5.416 10.415c1.4 1.155 27.121 22.085 57.063 31.69-30.003 6.239-52.068 4.681-65.786-4.68z"/></svg>