<?xml version="1.0" encoding="iso-8859-1"?>
<!-- Generator: Adobe Illustrator 19.0.0, SVG Export Plug-In . SVG Version: 6.00 Build 0)  -->
<svg version="1.1" id="Capa_1" xmlns="http://www.w3.org/2000/svg" xmlns:xlink="http://www.w3.org/1999/xlink" x="0px" y="0px"
	 viewBox="0 0 376.4 376.4" style="enable-background:new 0 0 376.4 376.4;" xml:space="preserve">
<g>
	<g>
		<path d="M155.181,50.4c-13.6,0-24.8,11.2-24.8,24.8c0,3.6,2.8,6.4,6.4,6.4c3.6,0,6.4-2.8,6.4-6.4c0-6.8,5.2-12,12-12
			c6.8,0,12,5.2,12,12c0,3.6,2.8,6.4,6.4,6.4s6.4-2.8,6.4-6.4C179.981,61.6,168.781,50.4,155.181,50.4z"/>
	</g>
</g>
<g>
	<g>
		<path d="M223.581,50.4c-13.6,0-24.8,11.2-24.8,24.8c0,3.6,2.8,6.4,6.4,6.4c3.6,0,6.4-2.8,6.4-6.4c0-6.8,5.2-12,12-12s12,5.2,12,12
			c0,3.6,2.8,6.4,6.4,6.4c3.6,0,6.4-2.8,6.4-6.4C248.381,61.6,237.181,50.4,223.581,50.4z"/>
	</g>
</g>
<g>
	<g>
		<path d="M211.181,124.4c-3.2-1.2-6.8,0.4-8,4c-1.6,4.8-6.4,8-11.2,8c-5.2,0-9.6-3.2-11.2-8c-1.2-3.2-4.8-5.2-8-4
			c-3.2,1.2-5.2,4.8-4,8c3.6,10,12.8,16.8,23.6,16.8c10.4,0,20-6.8,23.2-16.4C216.381,129.2,214.781,125.6,211.181,124.4z"/>
	</g>
</g>
<g>
	<g>
		<path d="M243.981,96.8l-46.8-13.2c-2.4-1.2-5.2-2-7.6-2c-9.2,0-16.8,7.6-16.8,16.4c0,9.2,7.2,16.4,16.4,16.4c0.4,0,0.4,0,0.8,0
			l52.8-5.2c3.2-0.4,5.6-2.8,5.6-5.6C248.781,100.4,246.781,97.6,243.981,96.8z M189.181,102c-2,0-3.6-1.6-3.6-3.6
			c0-2.4,1.6-4,3.6-4c0.8,0,1.2,0,2,0.4c0.4,0.4,1.2,0.4,1.6,0.8l15.2,4.4L189.181,102z"/>
	</g>
</g>
<g>
	<g>
		<circle cx="191.981" cy="219.2" r="13.2"/>
	</g>
</g>
<g>
	<g>
		<circle cx="191.981" cy="271.2" r="13.2"/>
	</g>
</g>
<g>
	<g>
		<path d="M369.581,166c-0.4-3.6-3.6-6.4-6.8-6.4l-42,2.4l39.2-43.6c2.4-2.8,2-6.8-0.4-9.2c-2.8-2.4-6.8-2-9.2,0.4l-28.4,31.6
			l-1.6-24.8c-0.4-3.6-3.2-6-6.8-6c-3.6,0.4-6,3.2-6,6.8l2.8,37.2l-22,24.8c-9.2-12.4-20.4-22.8-34-31.2
			c14.4-15.6,23.6-36.8,23.6-59.6c0-48.8-39.6-88.4-88.4-88.4s-88.8,39.2-88.8,88c0,23.2,8.8,44,23.6,59.6
			c-14,8.4-25.6,19.6-34.8,32.4l-23.2-25.6l2.8-37.2c0.4-3.6-2.4-6.4-6-6.8c-3.6-0.4-6.4,2.4-6.8,6l-2,25.2l-28.4-31.6
			c-2.4-2.8-6.4-2.8-9.2-0.4c-2.4,2.4-2.8,6.4-0.4,9.2l39.2,43.6l-42-2.4c-3.6-0.4-6.4,2.4-6.8,6c0,3.6,2.4,6.4,6,6.8l54.8,2.8
			l14.4,15.6c-10.8,18.4-16.4,39.6-16.4,61.6c0,68,55.6,123.6,123.6,123.6s123.6-55.6,123.6-123.6c0-22.8-6-44.4-17.2-62.8
			l13.2-14.4l54.8-2.8C367.181,172.8,369.981,169.6,369.581,166z M113.581,88c0-42,34-75.6,75.6-75.6c41.6,0,75.6,34,75.6,75.6
			s-33.6,76-75.6,76S113.581,130,113.581,88z M299.981,252.8c0,61.2-49.6,110.8-110.8,110.8s-110.8-49.6-110.8-110.8
			c0-18.4,4.4-36,12.8-51.6l3.6,4c1.2,1.2,2.8,2,4.8,2c1.6,0,3.2-0.4,4.4-1.6c2.8-2.4,2.8-6.4,0.4-9.2l-6.4-6.8
			c9.2-13.2,21.2-24.4,35.6-32.8c15.2,12.4,34.4,19.6,55.6,19.6c20.8,0,40.4-7.2,55.6-19.6c14,8,26,18.8,34.8,31.6l-7.2,8
			c-2.4,2.8-2,6.8,0.4,9.2c1.2,1.2,2.8,1.6,4.4,1.6c1.6,0,3.6-0.8,4.8-2l4.8-5.2C295.181,216,299.981,234,299.981,252.8z"/>
	</g>
</g>
<g>
</g>
<g>
</g>
<g>
</g>
<g>
</g>
<g>
</g>
<g>
</g>
<g>
</g>
<g>
</g>
<g>
</g>
<g>
</g>
<g>
</g>
<g>
</g>
<g>
</g>
<g>
</g>
<g>
</g>
</svg>
